<svg width="15" height="15" viewBox="0 0 15 15" fill="none" xmlns="http://www.w3.org/2000/svg">
<path d="M1.33739 9.42653H0V1.71997C0 1.37932 0.140904 1.05262 0.391714 0.811747C0.642524 0.57087 0.982695 0.435547 1.33739 0.435547H12.0365V1.71997H1.33739V9.42653ZM7.35567 14.5642C7.17832 14.5642 7.00823 14.4966 6.88282 14.3761C6.75742 14.2557 6.68697 14.0924 6.68697 13.922V11.9954H4.01218C3.65748 11.9954 3.31731 11.8601 3.0665 11.6192C2.81569 11.3783 2.67479 11.0516 2.67479 10.711V4.28883C2.67479 3.94818 2.81569 3.62148 3.0665 3.3806C3.31731 3.13972 3.65748 3.0044 4.01218 3.0044H13.3739C13.7286 3.0044 14.0688 3.13972 14.3196 3.3806C14.5704 3.62148 14.7113 3.94818 14.7113 4.28883V10.711C14.7113 11.0516 14.5704 11.3783 14.3196 11.6192C14.0688 11.8601 13.7286 11.9954 13.3739 11.9954H10.6323L8.1581 14.378C8.02436 14.4936 7.86387 14.5642 7.69001 14.5642H7.35567ZM5.34957 5.57325V6.85768H12.0365V5.57325H5.34957ZM5.34957 8.14211V9.42653H10.6991V8.14211H5.34957Z" fill="#3BCA09"/>
</svg>
