<svg width="16" height="11" viewBox="0 0 16 11" fill="none" xmlns="http://www.w3.org/2000/svg">
<path d="M8.05836 3.5C7.48396 3.5 6.93309 3.71071 6.52693 4.08579C6.12077 4.46086 5.89259 4.96957 5.89259 5.5C5.89259 6.03043 6.12077 6.53914 6.52693 6.91421C6.93309 7.28929 7.48396 7.5 8.05836 7.5C8.63276 7.5 9.18364 7.28929 9.5898 6.91421C9.99596 6.53914 10.2241 6.03043 10.2241 5.5C10.2241 4.96957 9.99596 4.46086 9.5898 4.08579C9.18364 3.71071 8.63276 3.5 8.05836 3.5ZM8.05836 8.83333C7.10103 8.83333 6.18291 8.48214 5.50597 7.85702C4.82904 7.2319 4.44874 6.38406 4.44874 5.5C4.44874 4.61595 4.82904 3.7681 5.50597 3.14298C6.18291 2.51786 7.10103 2.16667 8.05836 2.16667C9.0157 2.16667 9.93382 2.51786 10.6108 3.14298C11.2877 3.7681 11.668 4.61595 11.668 5.5C11.668 6.38406 11.2877 7.2319 10.6108 7.85702C9.93382 8.48214 9.0157 8.83333 8.05836 8.83333ZM8.05836 0.5C4.44874 0.5 1.36612 2.57333 0.117188 5.5C1.36612 8.42667 4.44874 10.5 8.05836 10.5C11.668 10.5 14.7506 8.42667 15.9995 5.5C14.7506 2.57333 11.668 0.5 8.05836 0.5Z" fill="#363636"/>
</svg>
