<svg width="22" height="22" viewBox="0 0 22 22" fill="none" xmlns="http://www.w3.org/2000/svg">
<path d="M10.0834 8.25016H11.9167V6.41683H10.0834M11 18.3335C6.95754 18.3335 3.66671 15.0427 3.66671 11.0002C3.66671 6.95766 6.95754 3.66683 11 3.66683C15.0425 3.66683 18.3334 6.95766 18.3334 11.0002C18.3334 15.0427 15.0425 18.3335 11 18.3335ZM11 1.8335C9.79626 1.8335 8.60426 2.0706 7.49211 2.53127C6.37996 2.99194 5.36943 3.66715 4.51823 4.51835C2.79914 6.23743 1.83337 8.56901 1.83337 11.0002C1.83337 13.4313 2.79914 15.7629 4.51823 17.482C5.36943 18.3332 6.37996 19.0084 7.49211 19.4691C8.60426 19.9297 9.79626 20.1668 11 20.1668C13.4312 20.1668 15.7628 19.2011 17.4819 17.482C19.2009 15.7629 20.1667 13.4313 20.1667 11.0002C20.1667 9.79638 19.9296 8.60438 19.4689 7.49223C19.0083 6.38008 18.3331 5.36955 17.4819 4.51835C16.6306 3.66715 15.6201 2.99194 14.508 2.53127C13.3958 2.0706 12.2038 1.8335 11 1.8335ZM10.0834 15.5835H11.9167V10.0835H10.0834V15.5835Z" fill="#2A2A2A"/>
</svg>
