<svg width="25" height="25" viewBox="0 0 25 25" fill="none" xmlns="http://www.w3.org/2000/svg">
<g clip-path="url(#clip0_10417_9073)">
<path opacity="0.975" fill-rule="evenodd" clip-rule="evenodd" d="M23.8035 -0.0244141C24.1127 -0.0244141 24.422 -0.0244141 24.7313 -0.0244141C24.8126 0.0569663 24.894 0.138346 24.9754 0.219727C24.9754 0.52897 24.9754 0.838218 24.9754 1.14746C24.6429 4.2365 23.707 7.13364 22.1678 9.83887C21.3066 11.2539 20.2324 12.4909 18.9451 13.5498C19.1352 14.006 19.298 14.478 19.4334 14.9658C19.6414 16.3807 19.2101 17.5606 18.1395 18.5059C16.7167 19.7017 15.0729 20.2876 13.2078 20.2637C12.8971 20.0518 12.8401 19.7832 13.0369 19.458C13.8343 18.6766 14.0784 17.7651 13.7693 16.7236C13.018 17.0501 12.2448 17.3186 11.45 17.5293C11.1552 17.5523 10.8622 17.5523 10.5711 17.5293C9.904 18.8327 8.84609 19.6302 7.39726 19.9219C6.58237 20.1581 5.75229 20.272 4.90703 20.2637C4.69179 20.129 4.61042 19.9336 4.66289 19.6777C4.7455 18.6461 4.96523 17.6452 5.32207 16.6748C5.71596 15.6298 6.41587 14.8649 7.42168 14.3799C7.39868 14.0888 7.39868 13.7958 7.42168 13.501C7.63237 12.7062 7.90093 11.933 8.22734 11.1816C7.18579 10.8713 6.27436 11.1155 5.49297 11.9141C5.16777 12.1109 4.89922 12.0539 4.6873 11.7432C4.66325 9.87827 5.24917 8.23438 6.44511 6.81152C7.39033 5.74092 8.57031 5.30957 9.98516 5.51758C10.473 5.65298 10.945 5.81577 11.4012 6.00586C13.264 3.81196 15.5589 2.23318 18.2859 1.26953C20.0829 0.62896 21.9221 0.197643 23.8035 -0.0244141Z" fill="#010100"/>
<path fill-rule="evenodd" clip-rule="evenodd" d="M23.5107 1.00098C23.6572 1.00098 23.8037 1.00098 23.9502 1.00098C23.8193 2.45319 23.5263 3.8692 23.0713 5.24902C21.932 4.14225 20.8089 3.0192 19.7021 1.87988C20.0841 1.7336 20.4747 1.61153 20.874 1.51367C21.7533 1.30685 22.6322 1.13595 23.5107 1.00098Z" fill="#FB5048"/>
<path fill-rule="evenodd" clip-rule="evenodd" d="M18.5303 2.22183C18.5817 2.21453 18.6305 2.22267 18.6768 2.24624C20.0195 3.58901 21.3623 4.93179 22.7051 6.27456C21.6447 9.38623 19.7648 11.8846 17.0654 13.7697C16.1369 14.4133 15.1604 14.9829 14.1358 15.4787C14.0707 15.5112 14.0055 15.5112 13.9404 15.4787C12.4512 13.9894 10.9619 12.5002 9.47267 11.0109C9.4401 10.9458 9.4401 10.8807 9.47267 10.8156C10.6344 8.36826 12.2539 6.27676 14.3311 4.54116C15.6223 3.57804 17.022 2.80492 18.5303 2.22183Z" fill="#FDFDFD"/>
<path fill-rule="evenodd" clip-rule="evenodd" d="M17.0168 4.9563C18.5024 4.79109 19.4871 5.40957 19.9709 6.81177C20.1581 8.17139 19.6292 9.12353 18.384 9.66821C17.3148 9.99712 16.4114 9.74482 15.674 8.91138C15.0536 7.98057 15.0048 7.02026 15.5276 6.03052C15.9099 5.50913 16.4064 5.15107 17.0168 4.9563Z" fill="#030303"/>
<path fill-rule="evenodd" clip-rule="evenodd" d="M17.3582 5.88379C18.5831 5.94443 19.1283 6.5792 18.9939 7.78809C18.6525 8.5979 18.0421 8.93154 17.1629 8.78906C16.2421 8.37129 15.941 7.67959 16.2595 6.71387C16.523 6.29517 16.8892 6.01851 17.3582 5.88379Z" fill="#79D5E5"/>
<path fill-rule="evenodd" clip-rule="evenodd" d="M8.76465 6.46993C9.47109 6.36319 10.1222 6.50152 10.7178 6.88496C9.95469 7.93033 9.27109 9.02896 8.66699 10.1809C7.69424 9.86612 6.75024 9.94751 5.83496 10.425C6.0415 9.0437 6.67627 7.89624 7.73926 6.98262C8.05884 6.75772 8.40063 6.58682 8.76465 6.46993Z" fill="#FC5148"/>
<path fill-rule="evenodd" clip-rule="evenodd" d="M14.6244 9.64372C15.175 9.6071 15.3784 9.85124 15.2348 10.3761C14.9643 10.728 14.6469 11.0292 14.2826 11.2795C13.7956 11.3294 13.5921 11.1096 13.6723 10.6203C13.9668 10.2688 14.2842 9.94333 14.6244 9.64372Z" fill="#0A0A0A"/>
<path fill-rule="evenodd" clip-rule="evenodd" d="M12.5248 11.7432C13.0697 11.6615 13.2894 11.8893 13.184 12.4268C13.0229 12.6573 12.8032 12.7305 12.5248 12.6466C12.2001 12.3396 12.2001 12.0385 12.5248 11.7432Z" fill="#050505"/>
<path fill-rule="evenodd" clip-rule="evenodd" d="M8.95956 11.9385C10.3396 13.2371 11.6905 14.5717 13.0123 15.9424C12.423 16.1833 11.8208 16.3868 11.2057 16.5527C11.0454 16.589 10.8989 16.5564 10.7662 16.4551C10.0094 15.6982 9.25253 14.9414 8.49569 14.1846C8.38954 14.0358 8.35697 13.873 8.39804 13.6963C8.56127 13.1009 8.74843 12.5149 8.95956 11.9385Z" fill="#FB5148"/>
<path opacity="0.927" fill-rule="evenodd" clip-rule="evenodd" d="M4.32129 13.0615C4.89658 13.0724 5.08374 13.3491 4.88281 13.8916C4.38639 14.388 3.88998 14.8844 3.39355 15.3809C2.94099 15.5778 2.6643 15.4394 2.56348 14.9658C2.57631 14.8424 2.617 14.7285 2.68555 14.624C3.2109 14.0741 3.75615 13.5532 4.32129 13.0615Z" fill="#0F0F0F"/>
<path fill-rule="evenodd" clip-rule="evenodd" d="M18.042 14.2334C18.4563 14.8176 18.5947 15.4687 18.457 16.1865C18.2825 16.788 17.9651 17.3007 17.5049 17.7246C16.6427 18.4813 15.6499 18.9452 14.5264 19.1162C14.8989 18.3422 15.0373 17.5285 14.9414 16.6748C14.899 16.5366 14.842 16.4064 14.7705 16.2842C15.9217 15.6849 17.0122 15.0013 18.042 14.2334Z" fill="#FC5148"/>
<path fill-rule="evenodd" clip-rule="evenodd" d="M7.9834 15.2098C8.05044 15.2022 8.11558 15.2103 8.17871 15.2342C8.69141 15.7469 9.2041 16.2596 9.7168 16.7723C9.49146 17.6333 8.96245 18.2437 8.12988 18.6034C7.35771 18.9063 6.56021 19.1097 5.7373 19.2137C5.83125 18.2357 6.0998 17.308 6.54297 16.4305C6.92725 15.9077 7.40742 15.5008 7.9834 15.2098Z" fill="#FCDB77"/>
<path opacity="0.934" fill-rule="evenodd" clip-rule="evenodd" d="M-0.0244141 20.5813C-0.0244141 20.4185 -0.0244141 20.2557 -0.0244141 20.093C1.15391 18.9391 2.32578 17.7754 3.49121 16.6018C3.80995 16.4609 4.06223 16.5341 4.24805 16.8215C4.30053 17.0343 4.26797 17.2296 4.15039 17.4074C3.03548 18.5223 1.92057 19.6373 0.805664 20.7522C0.476382 20.9323 0.199689 20.8754 -0.0244141 20.5813Z" fill="#0F0F0F"/>
<path opacity="0.928" fill-rule="evenodd" clip-rule="evenodd" d="M11.1577 19.9951C11.791 19.9602 11.9944 20.2369 11.768 20.8252C11.2879 21.3053 10.8077 21.7855 10.3276 22.2656C10.0024 22.4625 9.73384 22.4055 9.52193 22.0947C9.48106 21.9094 9.49732 21.7304 9.57075 21.5576C10.0946 21.0256 10.6236 20.5047 11.1577 19.9951Z" fill="#0F0F0F"/>
<path opacity="0.934" fill-rule="evenodd" clip-rule="evenodd" d="M0.952272 24.9755C0.789513 24.9755 0.62675 24.9755 0.463991 24.9755C0.169894 24.7514 0.112928 24.4747 0.293092 24.1454C1.408 23.0305 2.52291 21.9156 3.63782 20.8007C3.92563 20.6211 4.19419 20.6455 4.44348 20.8739C4.53688 21.0707 4.53688 21.266 4.44348 21.4599C3.2699 22.6253 2.10616 23.7972 0.952272 24.9755Z" fill="#0F0F0F"/>
<path opacity="0.934" fill-rule="evenodd" clip-rule="evenodd" d="M4.85852 24.9755C4.69576 24.9755 4.533 24.9755 4.37024 24.9755C4.07614 24.7514 4.01918 24.4747 4.19934 24.1454C5.31424 23.0305 6.42918 21.9156 7.54407 20.8007C7.83186 20.6211 8.10042 20.6455 8.34973 20.8739C8.44314 21.0707 8.44314 21.266 8.34973 21.4599C7.17615 22.6253 6.01243 23.7972 4.85852 24.9755Z" fill="#0F0F0F"/>
</g>
<defs>
<clipPath id="clip0_10417_9073">
<rect width="25" height="25" fill="white"/>
</clipPath>
</defs>
</svg>
